<?xml version="1.0" encoding="utf-8"?>
<!-- Generator: Adobe Illustrator 25.0.1, SVG Export Plug-In . SVG Version: 6.00 Build 0)  -->
<svg version="1.0" id="Layer_1" xmlns="http://www.w3.org/2000/svg" xmlns:xlink="http://www.w3.org/1999/xlink" x="0px" y="0px"
	 viewBox="0 0 964 674.7" style="enable-background:new 0 0 964 674.7;" xml:space="preserve">
<path d="M137.3,228.4h104.1c6.9,0.1,13.5,2.8,18.4,7.5l65.4,65.4c5.8,5.8,9,13.6,9,21.7v98.2l-33-33.3v-83.5l-33-34L225.4,315
	L137.3,228.4z"/>
<path d="M318,450.9H209.7c-6.9-0.1-13.5-2.9-18.4-7.8l-65.3-67c-5.8-6-9-14.1-9-22.4V253l34.7,34.5v85.7l33,35.2v-87.8l41.3,40.4
	l42-40.4v79.8L318,450.9z"/>
<polygon points="282.4,228.4 334.1,280.1 334.1,228.4 "/>
<polygon points="168.7,450.9 117,399.3 117,450.9 "/>
<polygon points="391.4,269.7 349.9,223 349.9,312.7 367.6,304.4 367.6,266.6 391.4,295.2 415.2,266.6 415.2,304.4 432.7,312.7 
	432.7,223 "/>
<path d="M483,244.9c14.1,0.1,25.5,11.6,25.5,25.7s-11.6,25.5-25.7,25.5c-14.1-0.1-25.5-11.6-25.5-25.7
	C457.4,256.3,468.9,245,483,244.9 M483,228.4c-23.3,0-42.2,18.9-42.2,42.2s18.9,42.2,42.2,42.2c23.3,0,42.2-18.9,42.2-42.2
	c0,0,0,0,0,0C525.3,247.4,506.4,228.4,483,228.4C483,228.4,483,228.4,483,228.4z"/>
<path d="M482,282l-10.6-10.6c-0.5-0.4-0.5-1.2,0-1.6c0,0,0,0,0,0l10.6-10.6c0.4-0.5,1.2-0.5,1.6,0c0,0,0,0,0,0l10.6,10.6
	c0.5,0.4,0.5,1.2,0,1.6c0,0,0,0,0,0L483.7,282C483.3,282.5,482.5,282.5,482,282C482,282,482,282,482,282z"/>
<path d="M585.4,265.5c7.5,0,6.6-15.3,6.6-15.3c0-23.6-25.2-21.7-25.2-21.7h-38.2l5.2,6.9v69.1l-5.7,8.3h43.7c8.7,0,23.4-9.9,23.4-26
	S585.4,265.5,585.4,265.5z M549.5,241.9h15.8c5.2,0,9.4,4.2,9.4,9.4s-4.2,9.4-9.4,9.4h-15.8V241.9z M575.7,293.8
	c-2,2.2-4.8,3.4-7.8,3.3h-18.4v-22.2h18.4c6.1,0,11.1,4.9,11.1,11.1c0,0,0,0,0,0C578.9,288.9,577.7,291.7,575.7,293.8L575.7,293.8z"
	/>
<polygon points="620.5,235.7 626.2,228.4 611.8,228.4 597.4,228.4 603.1,235.7 603.1,304.4 597.4,312.7 611.8,312.7 626.2,312.7 
	620.5,304.4 "/>
<polygon points="628.6,228.4 632.8,235.3 632.8,312.7 691.1,312.7 691.1,289.8 683.1,295.2 651.2,295.2 651.2,235.3 655.9,228.4 "/>
<polygon points="694.9,228.4 698.9,234.1 698.9,304.2 694.9,312.7 762.1,312.7 762.1,289.8 752.4,295.2 716.1,295.2 716.1,278.2 
	749.1,278.2 749.1,260.5 716.1,260.5 716.1,244.9 755,244.9 762.1,249.4 762.1,228.4 "/>
<polygon points="367.1,319.3 367.1,394.3 400.1,394.3 408.2,388.9 408.2,410.1 349.9,410.1 349.9,328.2 "/>
<polygon points="412.9,328.2 416.4,333.9 416.4,401.9 412.9,410.1 478,410.1 478,387.9 468.6,393.1 433.4,393.1 433.4,377.8 
	465.5,377.8 465.5,360.6 433.4,360.6 433.4,344.3 471.2,344.3 478,348.8 478,328.2 "/>
<path d="M557.3,369.3v41l-11.1-6.8c-18.9,12.5-44.4,7.4-56.9-11.5s-7.4-44.4,11.5-56.9c17.9-11.8,41.9-7.9,55,9l-13,10.1
	c-4.7-5.9-11.8-9.4-19.4-9.4c-13.6,0-24.5,11-24.5,24.5s11,24.5,24.5,24.5c6.8,0,13.3-2.8,17.9-7.8v-9.4l-4.9-7.3H557.3z"/>
<polygon points="562.5,328.2 566.3,333.9 566.3,401.9 562.5,410.1 627.6,410.1 627.6,387.9 618.4,393.1 583,393.1 583,377.8 
	615.1,377.8 615.1,360.6 583,360.6 583,344.3 621,344.3 627.6,348.8 627.6,328.2 "/>
<polygon points="635.6,328.2 635.6,403.8 630.9,410.1 658.8,410.1 653.3,403.8 653.3,369.3 697.2,410.1 699.3,410.1 699.3,334.4 
	702.7,328.2 677.4,328.2 681.9,335.1 681.9,370 637.8,328.2 "/>
<path d="M737.6,328.2h-30.9l4.5,8.5v65.4l-4.5,8h30.9c22.1,0,40.1-17.9,40.1-40c0,0,0-0.1,0-0.1v-1.9
	C777.6,346,759.7,328.2,737.6,328.2z M760.2,373.3c0,11.6-9.4,21-21,21l0,0h-12v-50h12c11.6,0,21,9.4,21,21l0,0V373.3z"/>
<path d="M843.8,328.2v25.2c0,0-9.9-9.4-22.9-9.4h-11.3c-8.5,1.7-8.5,10.6-0.2,13.7c1.9,0.7,10.9,3.3,13.2,4
	c6.4,1.6,12.4,4.9,17.2,9.4c6.8,6.4,9,16.3,5.7,25c-2.8,6.9-9.4,13.9-25.5,13.9c0,0-20.5,1-26.7-5.4l-8.7,5.4v-25.5
	c0,0,9.4,8.7,27.8,9.9c16.5,1.2,17.7-5.7,17.7-5.7s2.6-7.3-12.5-9.7c-7.2-1.1-14-3.8-20.1-7.8c-7.6-4.6-12.2-12.8-12.3-21.7
	c0-9.7,5.4-20.8,30-21.5c6.5-0.2,12.8,1.4,18.4,4.7h0.2L843.8,328.2z"/>
<path d="M351.5,450.9c-0.3,0-0.5-0.2-0.5-0.5l0.2-13.5l-0.2-13.7c0-0.3,0.2-0.5,0.5-0.5h12.7c5.9,0,10.1,1.9,10.1,7.1
	c0,3.3-1.6,5.2-4.7,6.1c3.8,0.7,5.7,3.3,5.7,6.6c0,5.9-5.4,8.3-10.9,8.3L351.5,450.9z M358.9,428l-0.2,5.9h5.4c1.9,0,3.3-1,3.3-2.8
	s-1.4-2.8-3.3-2.8h-5.2V428z M358.6,438.9l0.2,6.8h5.2c2.4,0,3.8-0.9,3.8-3.5c0-2.4-1.4-3.3-3.8-3.3H358.6z"/>
<path d="M414.8,423.3l9,27.1c0,0.2,0,0.5-0.5,0.5h-6.6c-0.2,0-0.5,0-0.5-0.5l-1.9-6.1h-9.9l-1.6,6.1c0,0.3-0.2,0.5-0.5,0.5h-6.9
	c-0.3,0-0.5-0.2-0.5-0.5l9.4-27.1c0-0.3,0.2-0.5,0.5-0.5h9.4C414.6,422.9,414.8,423.1,414.8,423.3z M409.4,428l-3.1,10.6h6.4
	L409.4,428z"/>
<path d="M452.1,450.5c0,0.3-0.2,0.5-0.5,0.5h-5.9c-0.3,0-0.5-0.2-0.5-0.5l0.2-13.5l-0.2-13.7c0-0.3,0.2-0.5,0.5-0.5h7.8
	c0.2,0,0.5,0,0.5,0.2l9.9,17.5l-0.2-4.7v-12.5c0-0.3,0.2-0.5,0.5-0.5h5.9c0.3,0,0.5,0.2,0.5,0.5l-0.2,13.7l0.2,13.5
	c0,0.3-0.2,0.5-0.5,0.5h-8c-0.2,0-0.5,0-0.5-0.2l-9.7-17.2l0.2,5.4L452.1,450.5z"/>
<path d="M492.6,437c0-8.7,5.9-14.6,14.4-14.6c7.3,0,12,3.5,13.4,9.4c0,0.3-0.2,0.5-0.5,0.5h-6.8c-0.3,0-0.5-0.2-0.5-0.5
	c-0.7-2.5-3.1-4.2-5.7-4c-4.5,0-6.8,3.5-6.8,9.2s2.4,9.2,6.8,9.2c3.3,0,5.7-1.9,5.9-5.4h-6.4c-0.3,0-0.5-0.2-0.5-0.5v-4.5
	c0-0.3,0.2-0.5,0.5-0.5h13.7c0.3,0,0.5,0.2,0.5,0.5c0,10.6-5.2,15.8-13.9,15.8C498.5,451.6,492.6,445.5,492.6,437z"/>
<path d="M586.1,450.9c-0.3,0-0.5-0.2-0.5-0.5l0.2-13.5l-0.2-13.7c0-0.3,0.2-0.5,0.5-0.5h12.7c5.9,0,10.2,1.9,10.2,7.1
	c0,3.3-1.7,5.2-4.7,6.1c3.8,0.7,5.7,3.3,5.7,6.6c0,5.9-5.4,8.3-10.9,8.3L586.1,450.9z M593.2,428l-0.2,5.9h5.4c1.9,0,3.3-1,3.3-2.8
	s-1.4-2.8-3.3-2.8h-5.2V428z M592.9,438.9l0.2,6.8h5.2c2.4,0,3.8-0.9,3.8-3.5c0-2.4-1.4-3.3-3.8-3.3H592.9z"/>
<path d="M649.3,423.3l9,27.1c0,0.2,0,0.5-0.5,0.5H651c-0.2,0-0.5,0-0.5-0.5l-1.9-6.1h-9.9l-1.7,6.1c0,0.3-0.2,0.5-0.5,0.5h-6.8
	c-0.3,0-0.5-0.2-0.5-0.5l9.4-27.1c0-0.3,0.2-0.5,0.5-0.5h9.4C649.1,422.9,649.1,423.1,649.3,423.3z M643.7,428l-3.1,10.6h6.4
	L643.7,428z"/>
<path d="M686.4,450.5c0,0.3-0.2,0.5-0.5,0.5H680c-0.3,0-0.5-0.2-0.5-0.5l0.2-13.5l-0.2-13.7c0-0.3,0.2-0.5,0.5-0.5h7.8
	c0.2,0,0.5,0,0.5,0.2l9.9,17.5l-0.2-4.7v-12.5c0-0.3,0.2-0.5,0.5-0.5h5.9c0.3,0,0.5,0.2,0.5,0.5l-0.2,13.7l0.2,13.5
	c0,0.3-0.2,0.5-0.5,0.5h-8c-0.2,0-0.5,0-0.5-0.2l-9.7-17.2l0.2,5.4L686.4,450.5z"/>
<path d="M727,437c0-8.7,5.9-14.6,14.4-14.6c7.3,0,12,3.5,13.5,9.4c0,0.3-0.2,0.5-0.5,0.5h-6.8c-0.3,0-0.5-0.2-0.5-0.5
	c-0.7-2.5-3.1-4.2-5.7-4c-4.5,0-6.8,3.5-6.8,9.2s2.4,9.2,6.8,9.2c3.3,0,5.7-1.9,5.9-5.4h-6.4c-0.3,0-0.5-0.2-0.5-0.5v-4.5
	c0-0.3,0.2-0.5,0.5-0.5h13.7c0.3,0,0.5,0.2,0.5,0.5c0,10.6-5.2,15.8-13.9,15.8C732.9,451.6,727,445.5,727,437z"/>
</svg>
